<svg width="512" height="512" viewBox="0 0 100 100" fill="none" xmlns="http://www.w3.org/2000/svg">
  <rect width="100" height="100" fill="#0C0C10" rx="20"/>
  <defs>
    <linearGradient id="logoRedGrad" x1="30" y1="30" x2="70" y2="70" gradientUnits="userSpaceOnUse">
      <stop offset="0%" stop-color="#FF2E43" />
      <stop offset="100%" stop-color="#B3001B" />
    </linearGradient>
    <filter id="logoGlow" x="-20%" y="-20%" width="140%" height="140%">
      <feGaussianBlur stdDeviation="3" result="blur" />
      <feComposite in="SourceGraphic" in2="blur" operator="over" />
    </filter>
  </defs>
  <circle cx="50" cy="50" r="44" stroke="#ffffff" stroke-width="1.5" stroke-dasharray="4 8" opacity="0.3" />
  <circle cx="50" cy="50" r="38" stroke="url(#logoRedGrad)" stroke-width="2.5" filter="url(#logoGlow)" />
  <circle cx="50" cy="12" r="3.5" fill="#FFFFFF" />
  <circle cx="88" cy="50" r="2.5" fill="#FF2E43" />
  <circle cx="12" cy="50" r="2.5" fill="#FFFFFF" opacity="0.7" />
  <path d="M42 34.64C42 32.72 44.08 31.52 45.74 32.48L67.14 44.84C68.8 45.8 68.8 48.2 67.14 49.16L45.74 61.52C44.08 62.48 42 61.28 42 59.36V34.64Z" fill="url(#logoRedGrad)" filter="url(#logoGlow)" />
  <path d="M72 40 C75 45 75 55 72 60" stroke="#FFFFFF" stroke-width="2" stroke-linecap="round" opacity="0.8" />
</svg>
